<?xml version="1.0" encoding="UTF-8" standalone="no"?>
<!-- Created with Inkscape (http://www.inkscape.org/) -->

<svg
   width="512"
   height="512"
   viewBox="0 0 512 512"
   version="1.1"
   id="svg1"
   inkscape:version="1.3 (0e150ed, 2023-07-21)"
   sodipodi:docname="DM.svg"
   xmlns:inkscape="http://www.inkscape.org/namespaces/inkscape"
   xmlns:sodipodi="http://sodipodi.sourceforge.net/DTD/sodipodi-0.dtd"
   xmlns="http://www.w3.org/2000/svg"
   xmlns:svg="http://www.w3.org/2000/svg">
  <sodipodi:namedview
     id="namedview1"
     pagecolor="#ffffff"
     bordercolor="#000000"
     borderopacity="0.25"
     inkscape:showpageshadow="2"
     inkscape:pageopacity="0.0"
     inkscape:pagecheckerboard="0"
     inkscape:deskcolor="#d1d1d1"
     inkscape:document-units="px"
     showguides="true"
     inkscape:zoom="1.4101562"
     inkscape:cx="265.92798"
     inkscape:cy="298.90305"
     inkscape:window-width="1920"
     inkscape:window-height="1052"
     inkscape:window-x="0"
     inkscape:window-y="0"
     inkscape:window-maximized="1"
     inkscape:current-layer="layer1">
    <sodipodi:guide
       position="9.9279778,459.52355"
       orientation="1,0"
       id="guide1"
       inkscape:locked="false" />
    <sodipodi:guide
       position="500.65374,435.41274"
       orientation="1,0"
       id="guide2"
       inkscape:locked="false" />
  </sodipodi:namedview>
  <defs
     id="defs1" />
  <g
     inkscape:label="Layer 1"
     inkscape:groupmode="layer"
     id="layer1">
    <path
       style="font-variation-settings:'wght' 700;opacity:0.86385;fill:#808080;stroke-width:7.659"
       id="path9"
       d="m 117.1652,47.886939 c 4.2158,9.524867 7.00204,19.569669 9.87547,29.556584 3.70579,14.44105 6.8365,29.032887 8.84189,43.815077 0.7643,5.63388 1.65103,15.55378 2.19259,21.2526 0.77503,11.904 1.59307,23.81625 1.52707,35.75353 -0.0298,5.38938 -0.22518,7.48297 -0.54585,12.65276 -0.36859,4.81907 -0.78877,9.66321 -1.97031,14.3623 -0.49882,1.56007 -0.6791,3.10203 -0.58399,4.73018 0.12069,2.0241 -0.12333,4.03715 -0.25305,6.05223 0.004,0.53317 -0.0509,1.06277 -0.11396,1.5911 0,0 46.83703,23.8524 46.83703,23.8524 v 0 c -0.0625,-0.5629 -0.12005,-1.12684 -0.11834,-1.69419 -0.12173,-2.01662 -0.34892,-4.03809 -0.14249,-6.05886 0.23241,-1.42637 0.24684,-2.87278 0.41147,-4.30893 0.0647,-1.8162 -0.0946,-3.23229 -0.36482,-5.04358 -0.59934,-4.01711 -1.0396,-8.05502 -1.46862,-12.09321 -1.74202,-16.89035 -2.48938,-33.87434 -4.7552,-50.71045 -0.41996,-3.57703 -0.77655,-7.16207 -1.25986,-10.73109 -0.50254,-3.71099 -1.14985,-7.40099 -1.69726,-11.10563 -0.56766,-3.84166 -1.07881,-7.69154 -1.64791,-11.53299 -0.55689,-3.75901 -1.20146,-7.50499 -1.73003,-11.26809 -0.49906,-3.55298 -0.84677,-7.12623 -1.35257,-10.67826 -0.44334,-3.11342 -0.9963,-6.21024 -1.49446,-9.315356 -0.31578,-2.722461 -0.63157,-5.444922 -0.94735,-8.167383 -0.29154,-2.142375 -0.62125,-4.279901 -0.87462,-6.427125 -0.47525,-4.027641 -0.79337,-8.07457 -1.36633,-12.092164 z" />
    <path
       style="font-variation-settings:'wght' 700;opacity:0.86385;fill:#808080;stroke-width:7.659"
       id="path10"
       d="m 131.38013,126.34359 c 0.21338,-0.30733 0.3931,-0.64101 0.64014,-0.92199 1.35427,-1.54036 2.20241,-2.06878 3.96144,-3.3843 4.48396,-3.3534 9.21644,-6.2151 13.9904,-9.13633 13.14603,-7.54646 27.14941,-13.42689 41.37226,-18.598098 8.63014,-3.171983 17.48875,-5.654593 26.31511,-8.204099 10.26891,-2.966191 2.81686,-1.015439 13.28218,-3.603525 12.64955,-3.368239 25.58904,-5.654 38.63037,-6.81196 2.81001,-0.249505 5.6304,-0.363484 8.44561,-0.545226 2.83313,-0.150219 5.66363,-0.363531 8.49941,-0.450655 2.78392,-0.08553 5.57021,-0.05804 8.35543,-0.06718 8.26995,-0.02713 16.56721,0.08427 24.82535,0.573382 2.75094,0.162933 5.49412,0.437737 8.24117,0.656605 13.29283,1.308011 25.97283,4.712528 37.89258,10.794265 2.12407,1.083748 4.15063,2.348823 6.22594,3.523235 -65.20983,-37.145837 -38.89303,-23.389763 -27.75057,-15.118598 3.39802,2.522381 8.16773,6.666542 11.0647,9.587155 5.59714,5.642827 6.44691,7.266289 11.34752,13.791365 7.43284,11.060664 12.2673,23.512554 15.20191,36.469934 1.48111,6.5397 1.97743,11.55066 2.84183,18.18398 0.70309,10.72817 0.6393,21.70289 -2.73608,32.0376 -1.74205,5.3338 -3.34674,7.68383 -6.03972,12.53146 -3.26003,4.37401 -5.0726,7.18435 -9.14015,10.99486 -3.16891,2.96866 -10.15823,8.05258 -13.73675,10.19033 -6.9448,4.14871 -10.08525,5.0822 -17.55125,8.099 -17.77247,6.77481 -36.73659,9.47077 -55.63019,10.69484 -4.01261,0.25996 -8.03553,0.3237 -12.05329,0.48555 -15.61502,0.36456 -31.46681,0.95521 -46.91604,-1.9001 -11.63376,-2.15014 -14.09294,-3.5109 -25.47407,-7.4697 8.18694,5.65762 -33.66542,-17.10184 -25.1925,-12.93896 8.18136,4.01962 15.55101,9.83997 24.18461,12.76453 3.64135,1.23348 -5.94521,-4.88638 -8.73546,-7.53126 -2.40822,-2.28274 -4.55992,-4.8217 -6.83987,-7.23255 0,0 -39.68,-16.52271 -39.68,-16.52271 v 0 c 3.82346,3.90429 12.74039,13.38722 17.17557,16.2915 8.73242,5.71822 39.61583,25.26655 56.8852,33.54526 4.42399,2.1208 8.97524,3.96525 13.46286,5.94787 10.04924,3.37487 17.30672,6.21279 27.77415,8.13442 3.87638,0.71164 7.83121,0.91222 11.76023,1.22117 4.07922,0.32076 8.1662,0.59009 12.25728,0.66741 3.76516,0.0712 19.77194,-0.4936 23.29723,-0.60694 1.87986,-0.14612 22.93788,-1.77472 24.28605,-1.91445 15.55443,-1.61207 31.05475,-4.21644 45.87483,-9.33374 7.45928,-3.31178 10.87102,-4.66536 18.12635,-8.55094 2.92832,-1.56825 5.87769,-3.12044 8.64191,-4.96259 2.3995,-1.59909 4.60959,-3.4709 6.80974,-5.33477 2.16045,-1.83026 4.37677,-3.62697 6.26231,-5.73934 1.62912,-1.82509 2.81361,-4.00293 4.22041,-6.0044 1.17638,-2.21297 2.53755,-4.3372 3.52913,-6.63891 1.00827,-2.34049 1.73175,-4.79695 2.45068,-7.24187 0.77728,-2.64334 1.57206,-5.29528 2.03456,-8.01143 0.4665,-2.73967 0.57535,-5.53008 0.74362,-8.30408 0.5803,-9.56682 0.34628,-8.20057 -0.43723,-17.81079 -0.39141,-3.14304 -0.65203,-6.30514 -1.17423,-9.42911 -0.69795,-4.17536 -3.2883,-15.42992 -4.45188,-19.39091 -0.96198,-3.27473 -2.13053,-6.48621 -3.28831,-9.69695 -1.15311,-3.19781 -2.24289,-6.42757 -3.64309,-9.52517 -1.31251,-2.90358 -2.98655,-5.62977 -4.47982,-8.44465 -1.56071,-2.54676 -2.98155,-5.1847 -4.68211,-7.64028 -2.17207,-3.13644 -7.20072,-9.101419 -10.01688,-11.843376 -1.68692,-1.642469 -3.52922,-3.119432 -5.35627,-4.604452 -15.83756,-12.872704 -31.38197,-19.301734 -51.24908,-30.851504 -2.15078,-1.066915 -4.25768,-2.227275 -6.45233,-3.200744 -12.11815,-5.375172 -24.89014,-7.813227 -38.02566,-8.981178 -5.25983,-0.312465 -11.45625,-0.727979 -16.71681,-0.846685 -2.67768,-0.06042 -5.35671,-0.0095 -8.03506,-0.0152 -2.85558,-0.0061 -5.71171,-0.07751 -8.56672,-0.02019 -2.63137,0.05283 -14.42421,0.675574 -16.85335,0.799454 -1.58996,0.140016 -15.82457,1.383021 -17.19159,1.547241 -2.68816,0.322927 -5.35479,0.805084 -8.0312,1.21418 -2.78466,0.425645 -5.58061,0.784961 -8.35196,1.290038 -5.05591,0.921434 -10.01707,2.321351 -15.09099,3.156473 -4.56393,1.193717 -9.16384,2.257483 -13.6918,3.581127 -2.0771,0.607192 -4.10857,1.361092 -6.17075,2.017156 -6.69365,2.129526 -13.39391,4.227789 -19.96081,6.73593 -3.4442,1.425738 -9.98914,4.100172 -13.32671,5.626915 -2.23799,1.023749 -4.42336,2.158878 -6.64173,3.224473 -7.19921,3.458146 -14.49975,6.687946 -21.69893,10.145762 -12.526398,5.476102 -1.31551,0.528494 -12.328344,5.505147 -4.185379,1.891355 -8.544811,3.660991 -12.265611,6.402739 z" />
    <path
       style="font-variation-settings:'wght' 700;opacity:0.86385;fill:#808080;stroke-width:7.659"
       id="path11"
       d="m 156.47663,243.30473 c -0.19339,0.71026 -0.38677,1.42052 -0.58016,2.13078 -0.28214,1.3656 -0.48864,2.74904 -0.84644,4.0968 -0.47857,1.80265 -1.10315,3.56334 -1.65975,5.34344 -0.79225,2.5337 -1.48539,5.101 -2.3868,7.59794 -1.03526,2.86772 -2.32299,5.63851 -3.41874,8.48367 -1.47123,3.82006 -2.85434,7.67347 -4.28151,11.51021 -4.4916,8.82898 -8.12059,18.05705 -12.37784,26.99351 -3.00081,6.29903 -13.29195,26.42854 -16.53235,32.21278 -3.82007,6.81894 -13.89256,22.96582 -18.114311,29.79744 -11.677274,17.78191 -23.819372,35.28977 -37.062081,51.94854 -2.241015,2.77063 -4.564144,5.4819 -7.088062,8.00047 -0.469417,0.46842 -1.473092,1.73383 -2.26642,1.75809 0,0 45.047839,26.9959 45.047839,26.9959 v 0 c 1.547232,-4.42325 3.027219,-8.87424 5.073129,-13.10742 8.581266,-19.44413 18.745356,-38.13628 28.377266,-57.06895 1.98883,-3.67811 14.81308,-27.44583 16.67305,-30.67317 3.11891,-5.41181 6.48926,-10.67482 9.71036,-16.02644 3.00688,-4.99571 5.89869,-10.06122 8.97348,-15.01543 2.83971,-4.57544 5.93243,-8.9907 8.76733,-13.56913 2.37583,-3.83703 4.57426,-7.7811 6.8614,-11.67165 2.28562,-3.38976 4.68407,-6.70611 6.85688,-10.16927 1.6122,-2.56961 2.99323,-5.27721 4.48984,-7.91582 1.43184,-2.1777 2.86626,-4.35371 4.2955,-6.53311 1.9621,-2.99193 3.75704,-6.17604 6.51236,-8.54109 z" />
    <path
       style="font-variation-settings:'wght' 700;opacity:0.86385;fill:#808080;stroke-width:7.659"
       id="path12"
       d="m 138.85073,262.01537 c 6.63988,6.69339 13.00838,13.65931 19.41744,20.57499 13.66393,14.59371 28.20632,28.30581 42.80484,41.94946 10.14718,9.70596 20.96157,18.6432 32.09057,27.18851 3.70646,2.62372 7.10279,5.67981 10.90194,8.17306 0.86027,0.62399 1.73297,1.23141 2.57667,1.87792 0,0 49.04724,19.08539 49.04724,19.08539 v 0 c -1.13822,-0.63916 -2.25146,-1.32152 -3.35578,-2.01738 -1.47956,-1.03998 -3.02538,-1.90956 -4.57403,-2.84348 -3.44478,-2.07737 -6.74571,-4.37308 -10.05785,-6.65333 -12.65241,-8.67709 -24.84636,-18.02899 -36.25792,-28.29626 -14.19752,-12.74757 -28.2487,-25.71857 -40.44708,-40.44633 -4.89405,-5.89192 -9.9382,-11.75109 -14.04289,-18.23352 z" />
    <path
       style="font-variation-settings:'wght' 700;opacity:0.86385;fill:#808080;stroke-width:7.659"
       id="path13"
       d="m 268.77249,390.00716 c 1.40969,-1.87786 3.13434,-3.46079 4.75244,-5.14794 1.07076,-1.11646 2.06525,-2.30612 3.16432,-3.39473 1.03145,-1.02163 7.42474,-6.80252 8.29937,-7.59654 1.68255,-1.58986 3.33532,-3.21186 5.04767,-4.76959 8.17781,-7.43944 3.20808,-2.42939 11.4884,-10.43844 6.13331,-5.93237 12.04457,-12.10348 18.06671,-18.14814 6.42397,-6.57286 12.5831,-13.39979 18.34867,-20.55919 1.39277,-1.72948 4.84095,-6.31896 6.25773,-8.19396 2.65819,-3.90348 5.71715,-7.54889 8.17473,-11.59069 0.12524,-0.20596 1.85732,-3.397 2.07409,-3.7957 0.92083,-1.48721 1.51561,-3.22389 2.56609,-4.63343 0.28378,-0.56579 0.5777,-1.12647 0.88699,-1.67875 0,0 -46.40741,-25.35328 -46.40741,-25.35328 v 0 c 0.0664,0.33641 -0.0352,0.68266 -0.14055,1.00566 -0.0767,0.18784 -0.47191,1.14591 -0.50528,1.27414 -0.36466,1.40126 -0.31651,2.93591 -0.96614,4.27568 -0.72462,2.06248 -1.41568,4.16428 -2.27765,6.17415 -1.46286,3.41092 -3.343,6.61832 -5.2327,9.80441 -6.1799,10.55754 -13.29175,20.57416 -21.42707,29.72352 -4.92049,5.44005 -6.09562,6.95867 -11.53267,12.05265 -7.65992,7.17659 -15.98994,13.66973 -24.52934,19.75402 -6.52333,4.93693 -13.01993,10.03492 -20.49143,13.48161 z" />
    <path
       style="font-variation-settings:'wght' 700;opacity:0.86385;fill:#808080;stroke-width:7.659"
       id="path14"
       d="m 307.50779,273.66444 c 5.04175,6.1453 9.74364,12.55349 14.41979,18.97875 7.9385,11.71656 15.60487,23.63342 22.71305,35.87568 0.45622,0.78575 11.19242,20.18 11.55117,20.82774 8.75778,16.27072 17.44372,32.57815 26.49984,48.68556 4.0348,7.72317 8.60161,15.14307 12.93519,22.69605 1.72054,3.21664 3.91464,6.13183 5.86845,9.19733 0.97498,1.09538 1.733,2.37539 2.68921,3.484 1.74941,2.02822 -0.76177,-1.12263 0.96908,1.08567 0.38394,0.85472 1.16245,1.39929 1.71186,2.1171 0.18074,0.23614 0.62176,1.05555 0.78023,1.34272 0.59989,1.29914 1.53198,2.33297 2.2119,3.58412 0.0959,0.18675 0.15949,0.39398 0.28762,0.56027 0.10008,0.12988 0.29381,0.17141 0.38246,0.30935 0.62281,0.96904 -0.18836,0.36297 0.59568,1.26833 1.37187,1.58414 -0.68992,-1.51068 0.92439,1.07668 1.29003,1.0343 2.07158,2.5325 3.45958,3.45535 0.0537,0.0806 0.84918,1.6042 0.88434,1.60165 0.14845,-0.0108 0.23224,-0.37183 0.34861,-0.27903 0.15109,0.12048 0.0185,0.38605 0.0277,0.57908 0.50169,1.86305 0.0383,1.17304 1.61574,-1.92355 0.33267,-0.65304 0.73984,-1.26537 1.10977,-1.89805 0,0 44.07345,29.25504 44.07345,29.25504 v 0 c 0.4157,-0.6533 0.88623,-1.27479 1.24709,-1.9599 1.53789,-2.91975 2.30749,-3.08191 0.52081,-2.98984 -0.11251,0.0545 -0.28265,0.27596 -0.33755,0.16362 -0.10704,-0.219 0.11687,-0.49133 0.0614,-0.72868 -0.0348,-0.14876 -1.46344,-0.85929 -1.51445,-1.09926 -0.36382,-0.8137 -0.87412,-1.58707 -1.53399,-2.20656 -0.21572,-0.20253 -0.5114,-0.30617 -0.72851,-0.50721 -0.33581,-0.31096 -0.72713,-0.95435 -0.9774,-1.33528 -1.23023,-0.7036 0.11088,0.1952 -0.85209,-0.93665 -0.21942,-0.2579 -0.68493,-0.21039 -0.8992,-0.47258 -1.44337,-1.76615 0.78877,0.23639 -0.61075,-0.95236 -0.94665,-1.13757 -1.38692,-2.40198 -2.51859,-3.36347 -0.1715,-0.27029 -0.68708,-1.06353 -0.81742,-1.34882 -0.43248,-0.94661 -0.7325,-1.84242 -1.5115,-2.58717 -0.33896,-0.49295 -0.60197,-1.03782 -0.96581,-1.5127 -0.93375,-1.2187 -2.22804,-2.17327 -3.0581,-3.4859 -1.7117,-1.70503 -0.26467,-0.17061 -1.9292,-2.25027 -1.89948,-2.3732 -4.00581,-4.58805 -5.67094,-7.14279 -5.77334,-7.89287 -11.23126,-16.0135 -16.67583,-24.1346 -2.88348,-4.53676 -5.85153,-9.01944 -8.73136,-13.55852 -7.63393,-12.03236 -14.95133,-24.26231 -21.82712,-36.74483 -1.8895,-3.49884 -3.779,-6.99767 -5.6685,-10.49651 -1.92063,-3.44933 -3.87953,-6.87763 -5.76187,-10.34801 -1.82008,-3.35558 -3.53692,-6.76633 -5.34468,-10.12856 -4.29844,-7.9946 -8.673,-15.94817 -12.9432,-23.95833 -0.90771,-1.83889 -1.76155,-3.70536 -2.72312,-5.51666 -2.01613,-3.79775 -4.48098,-7.36179 -6.2862,-11.27596 z" />
  </g>
</svg>
