<?xml version="1.0" encoding="UTF-8" standalone="no"?>
<!-- Uploaded to: SVG Repo, www.svgrepo.com, Generator: SVG Repo Mixer Tools -->

<svg
   fill="#000000"
   height="800px"
   width="800px"
   version="1.2"
   id="Layer_1"
   viewBox="0 0 256 256"
   xml:space="preserve"
   sodipodi:docname="dm_logo_color"
   inkscape:version="1.2.2 (732a01da63, 2022-12-09, custom)"
   xmlns:inkscape="http://www.inkscape.org/namespaces/inkscape"
   xmlns:sodipodi="http://sodipodi.sourceforge.net/DTD/sodipodi-0.dtd"
   xmlns="http://www.w3.org/2000/svg"
   xmlns:svg="http://www.w3.org/2000/svg"><defs
   id="defs23" /><sodipodi:namedview
   id="namedview21"
   pagecolor="#ffffff"
   bordercolor="#000000"
   borderopacity="0.25"
   inkscape:showpageshadow="2"
   inkscape:pageopacity="0.0"
   inkscape:pagecheckerboard="0"
   inkscape:deskcolor="#d1d1d1"
   showgrid="false"
   inkscape:zoom="0.9725"
   inkscape:cx="592.28792"
   inkscape:cy="421.07969"
   inkscape:window-width="1744"
   inkscape:window-height="944"
   inkscape:window-x="0"
   inkscape:window-y="0"
   inkscape:window-maximized="1"
   inkscape:current-layer="Layer_1" />
<path
   d="M127.1,94.4c19.9,0,36.1,15.8,36.1,35.3s-16.2,35.3-36.1,35.3s-36.1-15.8-36.1-35.3S107.2,94.4,127.1,94.4z M127.1,65.7  c-36,0-65.2,28.7-65.2,63.9s29.2,63.9,65.2,63.9c15.7,0,30.2-5.5,41.5-14.7c1.9,1.3,4.2,1.9,6.8,1.9c7,0,12.6-5.5,12.6-12.2  c0-3.3-1.3-6.2-3.5-8.4c5.1-9.1,7.9-19.5,7.9-30.5C192.3,94.3,163.1,65.7,127.1,65.7z M181.2,157.6c-1.7-0.8-3.7-1.4-5.8-1.4  c-7,0-12.6,5.5-12.6,12.2c0,2.8,1.1,5.6,2.7,7.6c-10.4,8.3-23.8,13.3-38.4,13.3c-33.7,0-61.1-26.9-61.1-59.9s27.4-59.9,61.1-59.9  s61.1,26.9,61.1,59.9C188.3,139.6,185.7,149.2,181.2,157.6z M251,67.5c0-11.7-9.7-21.2-21.6-21.2c-4.9,0-9.3,1.6-13,4.2  c-22.2-22.9-53.9-37.2-89-37.2c-67,0-121.5,52.1-121.5,116.2s54.5,116.2,121.5,116.2s121.5-52.1,121.5-116.2  c0-15.4-3.2-30.1-8.9-43.5C246.6,82.2,251,75.4,251,67.5z M244.8,129.4c0,61.9-52.6,112.3-117.4,112.3S9.9,191.2,9.9,129.4  S62.6,17.1,127.3,17.1c34,0,64.6,13.8,86.1,36c-3.5,3.8-5.7,8.8-5.7,14.3c0,11.7,9.7,21.2,21.6,21.2c2.4,0,4.7-0.4,7-1.2  C241.8,100.5,244.8,114.6,244.8,129.4z M127.7,49.5c-11.4,0-22.3,2.3-32.1,6.4c-1.6-2.4-4.4-4-7.6-4c-5.1,0-9.1,4-9.1,9  c0,1.4,0.3,2.7,0.9,3.9c-20.6,14.6-34,38.2-34,64.9c0,44.2,36.7,80.2,81.8,80.2s81.8-36,81.8-80.2S172.7,49.5,127.7,49.5z   M127.7,205.9c-42.8,0-77.7-34.2-77.7-76.2c0-25.4,12.8-47.9,32.3-61.8c1.6,1.3,3.5,1.9,5.7,1.9c5.1,0,9.1-4,9.1-9  c0-0.4,0-0.8-0.1-1.2c9.4-4,19.8-6.2,30.7-6.2c42.8,0,77.7,34.2,77.7,76.2S170.5,205.9,127.7,205.9z"
   id="path18" />
<path
   style="fill:#d4aa00;stroke-width:1.02828"
   d="m 375.96061,513.11783 c -28.14058,-5.84349 -52.72239,-21.25888 -69.61598,-43.65657 -7.17979,-9.51903 -14.87867,-25.5422 -18.05883,-37.58465 -2.33311,-8.83488 -2.72496,-12.45462 -2.78286,-25.70694 -0.0468,-10.71264 0.43848,-17.63718 1.58868,-22.66893 12.25109,-53.59435 60.51323,-90.21256 115.39359,-87.55324 49.45344,2.39636 90.44407,35.09817 103.66521,82.70282 1.90042,6.84274 2.21825,10.69735 2.22669,27.00521 0.009,17.83841 -0.16624,19.59948 -2.81782,28.27763 -11.77458,38.53617 -40.3096,66.4447 -78.93385,77.20082 -8.19158,2.28121 -12.23625,2.74775 -26.62544,3.07118 -12.03961,0.27061 -19.02047,-0.0451 -24.03939,-1.08733 z"
   id="path678"
   transform="scale(0.32)" /><path
   style="fill:#d45500;stroke-width:1.02828"
   d="m 379.43445,603.41508 c -49.98183,-5.1232 -93.21845,-25.32847 -127.01458,-59.35624 -28.40985,-28.60458 -46.3626,-61.74252 -54.55734,-100.70423 -3.68504,-17.52048 -4.57796,-46.42343 -1.99569,-64.59912 6.31881,-44.476 26.2826,-83.54647 58.80887,-115.09287 29.99757,-29.09388 65.1222,-46.93534 108.33058,-55.0262 13.35461,-2.50068 45.01058,-3.04622 60.24811,-1.03828 92.43532,12.18076 163.81037,82.69063 175.82364,173.69235 2.1807,16.51906 1.47884,42.74464 -1.58274,59.14084 -2.81333,15.06668 -9.89496,36.48886 -16.39382,49.59186 l -5.14538,10.37411 3.42865,4.49178 c 5.17054,6.77378 7.25278,13.15217 7.21563,22.10321 -0.0267,6.45517 -0.55054,8.80141 -3.21357,14.39588 -4.04938,8.5069 -10.38204,14.85609 -18.86239,18.9116 -6.11314,2.92347 -7.56175,3.1949 -16.96658,3.17915 -9.03759,-0.0151 -10.91492,-0.34158 -15.50304,-2.69582 l -5.22028,-2.67862 -4.03422,3.0792 c -30.07108,22.95233 -67.06357,37.76299 -104.50785,41.84176 -9.31799,1.01499 -30.66844,1.22909 -38.858,0.38964 z m 44.36827,-13.25003 c 29.66691,-4.13782 57.21695,-14.53837 81.14514,-30.63348 14.16697,-9.52931 13.11863,-7.82003 9.37949,-15.29287 -6.23124,-12.45342 -6.61362,-22.13847 -1.31472,-33.29986 9.10863,-19.1861 31.41072,-26.96334 52.30426,-18.2397 3.08277,1.28713 15.45821,-30.39167 19.9444,-51.0539 2.08969,-9.62457 2.34422,-13.5882 2.34422,-36.50385 0,-22.90362 -0.25534,-26.88434 -2.34158,-36.50386 -16.4693,-75.9388 -73.64692,-132.52834 -149.58254,-148.04405 -49.08243,-10.02887 -102.32231,0.0691 -143.9374,27.30036 -96.88375,63.397 -114.77328,193.48191 -38.52355,280.12673 29.7479,33.80342 73.45973,56.60192 120.08792,62.63349 11.50414,1.48811 38.17059,1.22986 50.49436,-0.48901 z"
   id="path818"
   transform="scale(0.32)" /><path
   style="fill:#6c5d53;stroke-width:1.02828"
   d="m 375.6593,654.47781 c -48.29696,-4.69126 -93.86477,-22.42737 -132.98361,-51.76048 -12.64434,-9.48131 -32.98894,-29.26366 -43.50842,-42.30602 -30.32955,-37.60346 -48.88716,-81.99354 -54.16478,-129.56298 -1.34593,-12.13138 -1.32513,-39.13184 0.0398,-51.71148 7.21011,-66.44951 43.5734,-130.17273 97.42241,-170.72353 4.36566,-3.28755 7.29192,-6.20112 6.99782,-6.9675 -5.7318,-14.93685 -0.009,-29.39053 14.26913,-36.0395 10.3116,-4.80181 22.31662,-2.53975 30.86987,5.8167 l 4.11311,4.01846 11.31106,-4.17656 c 93.49749,-34.52362 199.52192,-11.30478 270.32365,59.19957 38.43338,38.27194 62.92709,86.90884 71.23871,141.45788 2.48908,16.3358 2.48749,50.52051 -0.003,66.83804 -8.42623,55.20555 -32.29892,102.68473 -71.09096,141.38918 -39.59011,39.50071 -88.57975,64.20232 -143.99013,72.60284 -15.40583,2.33561 -46.49346,3.31935 -60.84456,1.92538 z m 41.57303,-11.30689 c 49.27756,-3.75917 96.32152,-22.03662 134.43862,-52.2319 9.54662,-7.56257 27.86717,-25.49684 36.17225,-35.40958 9.99881,-11.93434 22.73366,-31.59173 29.81889,-46.02812 16.73628,-34.10074 24.27961,-66.28153 24.34197,-103.84579 0.0464,-27.95252 -3.43061,-49.6422 -12.13641,-75.70733 -23.46218,-70.24561 -80.9639,-127.04181 -152.74683,-150.87269 -26.0115,-8.63545 -49.6391,-12.36615 -78.1491,-12.33942 -31.95599,0.03 -59.49005,4.90951 -86.8691,15.39484 l -9.27486,3.55199 -0.1939,5.35905 c -0.24467,6.76176 -2.4217,11.97674 -7.21433,17.28162 -4.99102,5.52445 -10.70063,8.29228 -18.37677,8.90845 -6.71647,0.53913 -12.48001,-0.80519 -16.98255,-3.9611 -3.19947,-2.24255 -2.72762,-2.50393 -17.90083,9.9163 -40.52636,33.17343 -70.55303,82.33573 -81.1994,132.94683 -5.9807,28.43124 -6.55948,60.99697 -1.59527,89.75905 10.9602,63.50208 48.66279,120.43346 104.3885,157.628 11.96537,7.98637 36.83251,20.5135 51.00384,25.69383 18.67732,6.82749 43.31591,12.12277 64.6774,13.90033 14.43101,1.20085 22.62747,1.21292 37.79788,0.0556 z"
   id="path820"
   transform="scale(0.32)" /><path
   style="fill:#8800aa;stroke-width:1.02828"
   d="M 373.26478,766.57127 C 303.77517,761.77391 239.07683,740.02974 182.51928,702.46445 74.596235,630.78243 12.815857,511.23892 19.566161,387.1542 23.691591,311.32015 49.884158,243.7867 99.108647,182.06631 110.34719,167.9748 138.71548,139.81723 153.72751,127.85314 203.46518,88.213886 259.04905,62.227678 320.33837,49.960319 c 67.35699,-13.481837 136.5027,-9.405403 200.72184,11.833405 54.03766,17.871552 104.4177,47.948616 143.47631,85.655876 l 11.07175,10.68868 9.49663,-4.75018 c 11.48164,-5.74307 19.97156,-7.85144 31.6972,-7.87162 49.38599,-0.0849 81.50967,50.52095 59.88816,94.34462 -4.22465,8.56277 -14.36836,20.1174 -22.00506,25.0658 -2.78894,1.80718 -5.0708,3.60693 -5.0708,3.99945 0,0.39252 1.36526,4.02448 3.03392,8.07101 4.32945,10.49903 11.75959,33.74619 14.86252,46.50138 6.86888,28.23578 9.36512,50.51184 9.26404,82.67093 -0.0884,28.13937 -1.41089,41.6871 -6.5745,67.35218 -31.20622,155.10661 -166.2732,274.30442 -330.25868,291.45621 -18.93041,1.97999 -50.23838,2.72808 -66.67692,1.59321 z m 63.92431,-12.88639 c 126.49463,-12.71723 237.15339,-87.64972 292.25584,-197.90082 17.18763,-34.38966 27.21875,-66.54297 33.20283,-106.42673 1.49076,-9.93588 1.84831,-18.74855 1.83571,-45.24422 -0.0169,-35.44903 -1.13755,-46.92812 -7.2215,-73.96961 -4.06379,-18.06243 -15.68454,-54.20446 -18.25477,-56.77469 -0.29602,-0.29602 -4.10289,0.25484 -8.45971,1.22414 -10.04532,2.23486 -24.84402,1.61206 -34.40353,-1.44789 -21.28478,-6.81315 -39.71209,-26.42012 -44.6942,-47.55538 -4.35621,-18.48007 0.0839,-38.66466 11.95558,-54.34987 l 4.10601,-5.42498 -3.42149,-3.60208 C 656.28361,153.99447 637.17744,137.41484 624.63222,127.97287 543.775,67.116904 440.91631,41.869856 338.33359,57.699807 239.66567,72.925654 150.74784,127.47347 93.255685,208.04608 63.98819,249.06313 43.373524,299.10475 35.045497,349.34995 c -6.047745,36.48766 -5.711873,79.24594 0.908208,115.61972 25.576183,140.52737 139.921705,253.78453 285.831735,283.11114 37.65271,7.56786 76.90899,9.47416 115.40365,5.60407 z"
   id="path960"
   transform="scale(0.32)" /><path
   style="fill:#808080;stroke-width:1.02828"
   d="m 362.70955,652.33523 c -27.8081,-4.19515 -50.63819,-11.42994 -77.36251,-24.51597 -75.28883,-36.8665 -126.79086,-107.15649 -138.76812,-189.39082 -2.16344,-14.85387 -2.14973,-51.32396 0.0252,-66.91722 4.81122,-34.49503 18.8628,-70.80023 39.33915,-101.64099 15.29689,-23.03962 32.51924,-41.70398 55.18788,-59.80868 8.9016,-7.10942 8.52306,-6.20532 7.12181,-17.00989 -0.98925,-7.62776 0.98034,-13.71324 6.38335,-19.72267 11.01127,-12.24719 27.92106,-12.83122 39.68421,-1.37062 l 3.83204,3.73348 17.31921,-5.80656 c 67.31508,-22.56854 135.85832,-17.80818 199.12384,13.82925 72.85694,36.43385 123.04256,105.38702 136.46197,187.49369 1.8003,11.01508 1.81077,56.75385 0.0155,67.86632 -2.1658,13.40628 -8.29002,37.23157 -12.68716,49.35733 -32.85229,90.5951 -119.29252,156.70992 -215.7638,165.02946 -18.83408,1.62422 -44.93334,1.13366 -59.91256,-1.12611 z m 77.39328,-11.55971 c 90.49023,-15.80224 162.23474,-76.94646 190.82023,-162.62642 12.25725,-36.73892 14.89016,-81.32995 7.07335,-119.79434 -18.34614,-90.27629 -88.83046,-162.84164 -179.83869,-185.14835 -20.49751,-5.02408 -33.56946,-6.47424 -58.67186,-6.50886 -23.82349,-0.0329 -34.00611,0.93351 -54.20084,5.14388 -10.58101,2.20603 -36.0663,10.13955 -40.92514,12.73992 -1.21167,0.64847 -1.94301,2.83787 -2.39617,7.1735 -0.73671,7.04847 -2.33009,10.65447 -7.11684,16.10629 -7.58827,8.64256 -21.80785,11.22395 -32.49389,5.89887 l -5.40302,-2.69243 -3.68053,2.61875 c -9.21305,6.55518 -27.12741,22.66604 -35.09058,31.55789 -34.31174,38.31322 -53.95303,80.38047 -60.97333,130.59126 -1.87582,13.41626 -1.59581,47.55821 0.51021,62.21079 10.61527,73.85542 55.91267,139.29105 121.04668,174.86136 31.98787,17.46888 58.95035,25.85681 98.61548,30.67891 1.97944,0.24064 13.54756,0.29244 25.70694,0.11512 18.00237,-0.26254 24.87687,-0.80595 37.018,-2.92614 z"
   id="path1169"
   transform="scale(0.32)" /><path
   style="fill:#e6e6e6;stroke-width:0.32"
   id="path1387"
   d="m 99.142986,102.63926 c 1.067774,2.02284 2.029474,4.10257 2.706554,6.29198 0.22966,0.74265 0.41777,1.49752 0.62665,2.24628 1.38004,5.41698 1.3006,10.85132 0.77396,16.36567 -0.28938,3.21331 -1.07109,6.339 -2.05806,9.40044 -0.54474,1.66072 -1.247364,3.25745 -2.044524,4.81018 -0.13724,0.25097 -0.27448,0.50194 -0.41171,0.7529 0,0 4.086964,2.34654 4.086964,2.34654 v 0 c 0.13817,-0.25367 0.27633,-0.50733 0.4145,-0.761 0.83663,-1.57217 1.52748,-3.20097 2.02742,-4.91463 0.95739,-3.11931 1.77539,-6.28361 1.97682,-9.55654 0.4405,-5.50965 0.53272,-11.0791 -0.70365,-16.50487 -0.18809,-0.74902 -0.35593,-1.50341 -0.56428,-2.24705 -0.60819,-2.1707 -1.50521,-4.22872 -2.48039,-6.25537 0,0 -4.350254,-1.97453 -4.350254,-1.97453 z" /><path
   style="fill:#e6e6e6;stroke-width:0.32"
   id="path1451"
   d="m 97.191076,120.17238 c 0.78153,-0.68468 1.59166,-1.33409 2.43072,-1.94652 0.598404,-0.41748 1.206814,-0.81972 1.828224,-1.20179 0.35274,-0.20601 0.70457,-0.41025 1.06731,-0.59868 0.48842,-0.25204 0.98003,-0.49819 1.47083,-0.74596 0.52229,-0.20944 1.07626,-0.32799 1.61968,-0.46964 0.71862,-0.15166 1.42762,-0.34347 2.14799,-0.48673 0.47085,-0.11226 0.94575,-0.20026 1.41875,-0.30368 0.5827,-0.0973 1.16564,-0.19245 1.74888,-0.28771 0.67741,-0.11215 1.36077,-0.15738 2.04608,-0.1771 0.7333,-0.0475 1.46728,-0.0854 2.20185,-0.10605 0.56548,-0.003 1.10658,0.14512 1.65292,0.26781 0.46716,0.11256 0.94061,0.22835 1.38954,0.40241 0.44291,0.18504 0.91635,0.28431 1.36418,0.45214 0.25933,0.044 0.48019,0.17866 0.7169,0.27506 0.52855,0.1817 1.04805,0.41423 1.56414,0.63927 0.44675,0.17705 0.88565,0.35266 1.30195,0.59069 -13.32039,-7.65653 9.97536,5.74164 -3.29217,-1.89477 0.32365,0.16125 0.5762,0.37879 0.80395,0.65823 0.2752,0.35379 0.50416,0.74062 0.68344,1.15074 0.21941,0.47507 0.38408,0.9709 0.50552,1.47919 0.0743,0.42697 0.19687,0.84003 0.3248,1.25304 0.10958,0.50001 0.16901,1.00996 0.24915,1.51551 0.0508,0.44805 0.0319,0.90331 -0.0303,1.34928 -0.10339,0.75192 -0.31973,1.48309 -0.523,2.21285 -0.21569,0.8354 -0.46339,1.66137 -0.71667,2.48597 -0.19336,0.67478 -0.38248,1.34925 -0.65095,1.99872 -0.24489,0.59528 -0.5379,1.16764 -0.86023,1.72424 -0.2803,0.47519 -0.57466,0.94191 -0.85627,1.41648 -0.34655,0.59077 -0.85841,1.0507 -1.34451,1.52341 -0.60851,0.57317 -1.35228,0.96519 -2.09503,1.3343 -0.95886,0.42876 -1.98226,0.67746 -3.00578,0.89513 -0.80328,0.18097 -1.59922,0.39328 -2.40303,0.57308 -0.96734,0.13758 -1.95299,0.12248 -2.92863,0.12679 -0.91956,0.0355 -1.82022,-0.16472 -2.71511,-0.34656 -0.74808,-0.16568 -1.4807,-0.39237 -2.20584,-0.63747 -1.65545,-0.7424 -4.518944,-2.52829 2.66697,1.60976 -0.40986,-0.23696 -0.80682,-0.4918 -1.16776,-0.79851 -0.53013,-0.41574 -0.86286,-1.01058 -1.19926,-1.58153 -0.38412,-0.64221 -0.73337,-1.30405 -1.08531,-1.96415 0,0 -4.372804,-1.96288 -4.372804,-1.96288 v 0 c 0.35903,0.66298 0.72202,1.32376 1.07977,1.98762 0.35794,0.58043 0.65897,1.21504 1.12545,1.71687 0.36567,0.31578 0.71389,0.64457 1.141864,0.87903 1.68149,0.97074 3.62265,2.37052 5.60331,3.05501 0.7274,0.22579 1.46401,0.42594 2.2121,0.57076 0.91483,0.17532 1.83463,0.32929 2.7704,0.26496 1.00496,-0.0196 2.0293,0.0162 3.01639,-0.19484 0.79225,-0.20142 1.58526,-0.39972 2.38196,-0.58292 1.04592,-0.25934 2.10455,-0.51936 3.07906,-0.99014 0.7688,-0.41282 1.55346,-0.82721 2.17286,-1.45442 0.50992,-0.50665 1.06507,-0.98831 1.42634,-1.61883 0.28237,-0.47635 0.58128,-0.94298 0.8467,-1.42924 0.32961,-0.57606 0.65916,-1.15577 0.89586,-1.77764 0.2702,-0.66629 0.49466,-1.34692 0.65768,-2.04768 0.24436,-0.83077 0.5288,-1.65006 0.72614,-2.49412 0.20159,-0.74708 0.42368,-1.49012 0.58314,-2.24735 0.0744,-0.48962 0.0874,-0.98386 0.0842,-1.47891 -0.0709,-0.51888 -0.18046,-1.03209 -0.22094,-1.5553 -0.0851,-0.42318 -0.28378,-0.81156 -0.33736,-1.24317 -0.10817,-0.53418 -0.24935,-1.0616 -0.46925,-1.562 -0.18375,-0.4377 -0.35614,-0.86837 -0.63133,-1.26117 -0.21858,-0.29681 -0.39232,-0.6374 -0.7281,-0.81507 -13.33947,-7.71087 1.84408,1.08701 -0.71044,-0.40865 -1.40871,-0.82479 -2.82735,-1.63252 -4.24102,-2.44877 -0.42362,-0.20315 -0.87732,-0.34182 -1.30269,-0.5424 -0.53095,-0.22234 -1.06442,-0.43882 -1.59397,-0.66229 -0.23407,-0.1044 -0.49514,-0.13775 -0.73314,-0.23486 -0.4592,-0.12947 -0.90466,-0.30039 -1.35728,-0.45048 -0.46748,-0.13266 -0.93479,-0.26675 -1.41302,-0.35595 -0.56891,-0.12192 -1.14486,-0.20715 -1.72887,-0.17177 -0.72896,0.0366 -1.45696,0.0922 -2.18662,0.11433 -0.6984,0.028 -1.39054,0.10869 -2.08013,0.22396 -0.59401,0.0894 -1.18931,0.17568 -1.77822,0.29455 -0.47396,0.0907 -0.93998,0.21252 -1.41174,0.3136 -0.7186,0.16509 -1.43506,0.33961 -2.15301,0.50753 -0.57452,0.14706 -1.16592,0.2677 -1.696194,0.54309 -0.49008,0.24926 -0.9715,0.51525 -1.46727,0.75324 -0.37417,0.19296 -0.73754,0.40226 -1.08994,0.63288 -0.61695,0.39964 -1.22059,0.81949 -1.81763,1.2482 -0.846032,0.62369 -1.639619,1.31101 -2.465763,1.96028 0,0 4.059563,2.53769 4.059563,2.53769 z" /><path
   style="fill:#e6e6e6;stroke-width:0.32"
   id="path1453"
   d="m 133.2444,117.14338 c -1.97208,7.48797 -4.83968,14.7114 -7.61268,21.93032 -2.48773,6.25012 -4.85011,12.55449 -7.6202,18.68805 -1.46152,3.23611 -2.00547,4.2493 -3.54518,7.32038 -1.57252,2.93293 -3.07917,5.9216 -4.92038,8.70022 -0.0854,0.11638 -0.17088,0.23276 -0.25632,0.34914 0,0 4.11719,2.41611 4.11719,2.41611 v 0 c 0.0793,-0.12733 0.15863,-0.25466 0.23794,-0.38199 1.67754,-2.90294 3.06425,-5.96341 4.55185,-8.96459 1.84805,-3.90473 3.65543,-7.81989 5.31456,-11.80994 1.45761,-3.50542 2.33753,-5.85238 3.72772,-9.39927 0.64574,-1.64751 1.29696,-3.29286 1.94544,-4.9393 2.81108,-7.19407 5.68101,-14.37044 8.22364,-21.6651 0,0 -4.16358,-2.24403 -4.16358,-2.24403 z" /><path
   style="fill:#e6e6e6;stroke-width:0.32"
   id="path1455"
   d="m 132.08282,118.18982 c 1.33065,3.71326 2.49925,7.48338 3.69786,11.24092 1.14896,3.82233 2.61565,7.53082 4.22185,11.18038 0.48183,1.08327 0.95992,2.16812 1.42722,3.25774 0,0 4.28658,1.96021 4.28658,1.96021 v 0 c -0.52162,-1.10555 -1.0503,-2.20777 -1.56187,-3.31805 -1.65435,-3.63513 -3.0853,-7.3611 -4.30622,-11.16515 -1.20308,-3.69038 -2.36737,-7.39234 -3.43872,-11.12331 0,0 -4.3267,-2.03274 -4.3267,-2.03274 z" /><path
   style="fill:#e6e6e6;stroke-width:0.32"
   id="path1457"
   d="m 143.75021,148.12999 c 1.4798,-3.11272 2.96532,-6.22275 4.43613,-9.3398 1.05962,-2.38112 2.22846,-4.71895 3.14844,-7.16025 0.47837,-1.26944 0.66522,-1.92792 1.06892,-3.2153 0.67171,-2.11272 1.25095,-4.25393 1.93999,-6.36115 0.79131,-1.54495 1.01024,-1.76735 -4.0875,-2.28431 -0.54076,-0.0548 0.11651,1.08101 0.15671,1.62306 0.0642,0.86553 0.0989,1.733 0.15641,2.59899 0.25061,3.77385 0.17073,2.64494 0.6041,6.57184 0.87923,6.58887 2.68736,13.01085 5.13594,19.17936 0.25842,0.58322 0.51685,1.16644 0.77527,1.74965 0,0 4.14632,1.89154 4.14632,1.89154 v 0 c -0.28168,-0.58692 -0.56335,-1.17383 -0.84503,-1.76075 -0.3162,-0.74201 -0.65165,-1.4761 -0.9486,-2.22602 -2.14925,-5.42788 -3.62361,-11.11673 -4.37823,-16.90527 -0.30431,-3.00489 -0.57788,-5.99452 -0.54233,-9.01917 0.006,-0.54813 0.48561,-1.26469 0.0881,-1.64212 -3.95152,-3.75188 -3.80783,-3.83052 -4.42396,-2.05429 -0.59795,2.1445 -1.16053,4.29919 -1.80816,6.42954 -1.09361,3.56115 -2.51001,6.99586 -4.11665,10.35733 -1.48223,3.10029 -2.97272,6.20258 -4.64099,9.20785 0,0 4.13513,2.35927 4.13513,2.35927 z" /><path
   style="fill:#55d400;stroke-width:1.02828"
   d="m 366.06684,601.10432 c -55.10862,-9.72387 -98.74948,-35.87567 -131.9548,-79.07395 -16.76558,-21.8111 -29.41146,-49.86102 -35.79606,-79.39954 -2.06089,-9.53479 -2.3304,-13.72746 -2.37678,-36.9753 -0.0473,-23.71296 0.18114,-27.3522 2.38831,-38.04628 15.11571,-73.23802 68.48039,-130.87551 141.51825,-152.84931 18.15473,-5.46195 26.61416,-6.67646 50.6039,-7.26518 26.35444,-0.64674 36.3982,0.30463 56.48644,5.35056 71.11612,17.86354 125.79815,70.60529 145.80032,140.62688 5.57084,19.50185 6.23865,25.18953 6.18744,52.69747 -0.042,22.50923 -0.32868,27.00104 -2.30532,36.11047 -3.13835,14.4632 -9.69732,33.89485 -15.70945,46.54097 -2.79049,5.8696 -5.07361,11.05472 -5.07361,11.52246 0,0.46775 1.80869,3.43245 4.01933,6.58823 12.59144,17.97489 5.21917,42.49629 -15.81552,52.605 -6.47829,3.11331 -8.0509,3.44521 -16.32386,3.44521 -7.64381,0 -10.1373,-0.44087 -15.10653,-2.67093 l -5.9516,-2.67092 -9.40243,6.75144 c -23.56032,16.9175 -50.94562,28.87027 -80.75101,35.24512 -10.75457,2.30021 -15.37679,2.68626 -35.98972,3.00593 -19.6312,0.30446 -25.48524,0.043 -34.4473,-1.53833 z m 71.16014,-12.75147 c 16.16976,-3.53606 31.87747,-8.908 45.54937,-15.57761 12.68488,-6.18811 33.13862,-19.1771 34.08607,-21.6461 0.34079,-0.88808 -0.94238,-4.94696 -2.85148,-9.01973 -3.09435,-6.60132 -3.46995,-8.3537 -3.46055,-16.1454 0.009,-7.59519 0.40256,-9.51714 3.00249,-14.66905 3.60388,-7.14125 12.05792,-15.41507 18.79595,-18.39529 6.85024,-3.02984 19.67875,-3.71495 27.42039,-1.4644 3.2196,0.93597 6.31108,1.41916 6.86994,1.07376 3.19169,-1.97258 13.32487,-27.87569 18.08751,-46.23654 2.91148,-11.22422 2.93365,-11.54391 2.88779,-41.64524 l -0.0462,-30.33419 -3.17097,-11.82519 c -10.38791,-38.73855 -26.7434,-66.88716 -54.20195,-93.28425 -57.25527,-55.04193 -145.37425,-68.45418 -218.11308,-33.19812 -53.61399,25.98636 -91.71816,75.24481 -103.5414,133.85122 -2.02492,10.03727 -2.35113,14.79305 -2.35113,34.27639 0,19.54739 0.32278,24.22297 2.37486,34.40041 4.39375,21.79117 11.69915,41.23288 22.19473,59.06639 24.84017,42.20704 63.12211,72.20024 110.5157,86.58705 21.58044,6.55095 30.174,7.60245 58.72498,7.18549 22.36203,-0.32658 26.54502,-0.66363 37.22698,-2.9996 z"
   id="path1582"
   transform="scale(0.32)" /><path
   style="fill:#c83737;stroke-width:1.02828"
   d="m 366.06684,652.40402 c -30.71988,-4.21914 -62.59178,-14.99866 -91.74806,-31.03048 -35.5161,-19.52881 -66.90475,-48.65936 -89.50952,-83.0702 -15.71046,-23.91576 -29.46333,-57.45564 -35.22243,-85.89884 -5.40499,-26.6943 -5.40425,-67.83557 0.002,-94.53462 3.61837,-17.87053 10.55019,-38.17809 19.05561,-55.82555 16.96588,-35.20167 36.89439,-61.00183 66.96518,-86.69552 7.27863,-6.21915 13.29395,-11.86979 13.36738,-12.55697 0.0734,-0.68718 0.0269,-5.05607 -0.10337,-9.70864 -0.2892,-10.32642 1.89237,-15.65884 8.94653,-21.86816 4.4787,-3.94231 12.28728,-7.20476 17.24441,-7.20476 5.27988,0 12.84779,3.27971 17.76097,7.69708 l 5.10732,4.59191 12.21623,-4.12381 c 16.59905,-5.60329 32.41751,-9.75323 47.17769,-12.37696 17.46049,-3.10372 54.45698,-3.87588 72.49357,-1.51301 81.82096,10.71886 152.33982,58.05133 191.60218,128.60397 11.48584,20.63952 21.6653,48.02248 26.94905,72.49357 2.46037,11.39494 2.83276,15.7122 3.28175,38.04628 0.29509,14.67916 0.0427,29.74465 -0.60481,36.09997 -1.30232,12.78247 -8.5732,42.29329 -14.03397,56.96061 -28.14957,75.6082 -96.28487,136.10049 -175.32699,155.65986 -24.11351,5.96701 -29.16902,6.54446 -60.14484,6.86982 -15.83548,0.16633 -31.79949,-0.11067 -35.47558,-0.61555 z m 76.09254,-11.64368 c 34.18502,-6.50271 64.00103,-18.20282 91.2054,-35.78997 61.42792,-39.71209 101.4975,-105.42979 108.36056,-177.72101 1.49113,-15.70677 0.67626,-45.9742 -1.60566,-59.64011 -6.71762,-40.23024 -24.55456,-79.86849 -50.20486,-111.56812 -8.04593,-9.94346 -26.32165,-28.14314 -36.18731,-36.03675 -37.21615,-29.77696 -84.79141,-49.1731 -129.74947,-52.89807 -26.06125,-2.15929 -52.99719,-0.87106 -74.87778,3.58108 -13.82359,2.81274 -43.88756,12.14663 -45.53542,14.13726 -0.58896,0.71148 -1.61224,4.30131 -2.27396,7.97741 -1.37832,7.65711 -3.65107,11.84119 -8.9676,16.50917 -5.32076,4.67168 -10.10621,6.38912 -17.77315,6.37857 -4.88959,-0.007 -8.22228,-0.69697 -12.41491,-2.57126 l -5.73112,-2.56207 -8.66477,6.86571 c -52.5831,41.66529 -85.36186,100.89579 -91.54888,165.42685 -1.54003,16.0626 -0.42643,46.13295 2.30498,62.24117 9.47974,55.90572 40.9321,109.30355 85.34021,144.88518 14.52902,11.64127 27.32897,19.63499 46.65279,29.13523 19.03324,9.35739 35.58984,15.28551 53.98458,19.32928 23.59097,5.18607 29.52481,5.73587 57.58355,5.33534 22.8596,-0.32631 28.00067,-0.71281 40.10282,-3.01489 z"
   id="path1860"
   transform="scale(0.32)" /></svg>
